<svg width="10" height="6" viewBox="0 0 10 6" fill="none" xmlns="http://www.w3.org/2000/svg">
<path d="M0.0987049 1.51525L4.70774 5.90575C4.77359 5.96855 4.84935 6 4.93505 6C5.02075 6 5.09665 5.96855 5.16253 5.90575L9.77119 1.51525C9.83721 1.45235 9.87012 1.38018 9.87012 1.29851C9.87012 1.21686 9.83711 1.14459 9.77119 1.08183L9.2768 0.610883C9.21088 0.548083 9.13502 0.5167 9.04932 0.5167C8.96362 0.5167 8.88775 0.548083 8.82183 0.610883L4.93505 4.31356L1.04813 0.610651C0.982241 0.547852 0.906344 0.516667 0.820782 0.516667C0.734944 0.516667 0.659081 0.54805 0.593196 0.610651L0.0987403 1.08179C0.0328538 1.14456 0.000117937 1.21686 0.000117926 1.29847C8.35833e-05 1.38018 0.0328194 1.45245 0.0987049 1.51525Z" fill="#0D3152"/>
</svg>
